<?xml version="1.0" encoding="UTF-8"?>
<!-- Generator: Adobe Illustrator 17.0.0, SVG Export Plug-In . SVG Version: 6.00 Build 0)  -->
<svg width="280" height="280" enable-background="new 0 0 595.28 736" version="1.1" viewBox="0 0 280 280" xml:space="preserve" xmlns="http://www.w3.org/2000/svg">















<g transform="translate(11.241 37.596)"><g transform="translate(-173.9 -230.58)" fill="#3fab48">
	<path d="m307.31 255.39c11.066 11.495 17.455 26.125 21.049 41.51 2 8.562 2.929 17.349 3.074 26.13 0.144 8.741-0.142 18.712-4.768 26.39-1.669 2.769 6.5-2.89 7.78-5.844 0.973-2.245 1.498-6.947 1.899-14.991 0.498-10-0.609-20.069-2.496-29.879-3.324-17.287-10.708-34.08-23.001-46.85-2.241-2.328-5.772 1.212-3.537 3.534z"/>

	<path d="m307.17 251.85c-12.023 12.49-18.996 28.508-22.679 45.283-2.128 9.694-3.039 19.681-2.879 29.595 0.138 8.543 0.924 17.746 5.422 25.21 1.661 2.757 5.986 0.246 4.317-2.524-4.383-7.273-4.635-16.266-4.769-24.538-0.143-8.869 0.946-17.741 2.73-26.415 3.273-15.905 10.047-31.291 21.393-43.077 2.236-2.32-1.295-5.86-3.535-3.534z"/>
</g><path d="m136.05 80.526c-0.847 0-1.677-0.015-2.489-0.045l-0.472-0.017c-5.088-0.187-8.764-0.321-13.628-0.83-2.871-0.299-5.934-0.79-9.106-1.457-2.471-0.522-4.521-1.02-6.45-1.567-1.797-0.514-3.426-1.039-4.982-1.607-4.268-1.551-7.678-3.233-10.425-5.144-3.592-2.496-5.948-5.361-7.003-8.513-0.283-0.848-0.323-1.901-0.354-2.748l-9e-3 -0.21c-0.054-1.389 0.551-2.776 1.085-4 9e-3 -0.022 0.039-0.034 0.062-0.024 0.024 0.01 0.036 0.035 0.026 0.057-0.53 1.216-1.13 2.594-1.076 3.964l8e-3 0.21c0.031 0.842 0.07 1.888 0.35 2.726 1.868 5.582 7.55 10.031 17.372 13.601 1.554 0.566 3.182 1.091 4.975 1.603 1.927 0.547 3.974 1.044 6.444 1.566 3.168 0.667 6.228 1.157 9.096 1.456 4.86 0.508 8.534 0.643 13.62 0.829l0.473 0.017c3.898 0.142 8.177-0.056 13.08-0.608 8.114-0.914 14.542-2.191 20.227-4.02 1.638-0.523 3.22-1.096 4.704-1.703 7.576-3.093 16.396-8.507 15.392-16.728-0.106-0.866-0.414-1.791-0.969-2.911-0.011-0.022 0-0.048 0.024-0.058 0.025-0.01 0.053 0 0.063 0.022 0.56 1.128 0.87 2.062 0.976 2.937 0.459 3.757-1.101 7.278-4.637 10.464-2.613 2.355-6.25 4.493-10.81 6.355-1.487 0.608-3.072 1.182-4.712 1.706-5.692 1.83-12.126 3.109-20.248 4.023-3.888 0.438-7.383 0.654-10.607 0.654z" fill="none" stroke="#3fab48" stroke-miterlimit="10" stroke-width="5"/><g fill="#ee2b24"><path d="m118.98 174.17c-1.185 1.571-2.555 2.806-4.075 3.671-1.631 0.908-3.398 1.369-5.251 1.369-2.984 0-5.633-1.148-7.873-3.412-2.23-2.253-3.361-4.908-3.361-7.893 0-3.033 1.107-5.714 3.291-7.967 2.216-2.287 4.871-3.447 7.889-3.447 3.978 0 7.095 1.638 9.263 4.867l0.077 0.114h3.58l-0.153-0.357c-0.368-0.86-0.964-1.755-1.769-2.657-2.903-3.279-6.585-4.941-10.944-4.941-4.03 0-7.485 1.392-10.267 4.137-2.794 2.758-4.211 6.195-4.211 10.215 0 3.973 1.435 7.397 4.266 10.18 2.817 2.756 6.266 4.154 10.248 4.154 5.673 0 9.97-2.609 12.775-7.757l0.206-0.378h-3.615z"/><path d="m134.07 160.54c-2.971 0-5.538 1.096-7.628 3.259-2.075 2.138-3.128 4.733-3.128 7.713 0 2.886 1.078 5.416 3.204 7.517 2.114 2.102 4.654 3.167 7.552 3.167 2.946 0 5.511-1.078 7.626-3.204 2.112-2.114 3.184-4.679 3.184-7.624 0-2.934-1.078-5.499-3.203-7.625-2.126-2.126-4.685-3.203-7.607-3.203m0.036 18.825c-2.123 0-3.961-0.79-5.462-2.349-1.491-1.549-2.248-3.414-2.248-5.54 0-2.189 0.74-4.096 2.198-5.671 1.489-1.615 3.343-2.435 5.512-2.435 2.111 0 3.943 0.791 5.444 2.349 1.491 1.55 2.248 3.414 2.248 5.541 0 2.224-0.728 4.144-2.162 5.706-1.476 1.592-3.337 2.399-5.53 2.399"/><path d="m156.64 160.54c-2.619 0-4.641 0.891-6.019 2.649v-2.128h-3.083v20.65h3.083v-11.53c0-0.988 0.134-1.924 0.401-2.782 0.309-0.984 0.782-1.782 1.406-2.371 1.168-1.1 2.585-1.657 4.212-1.657 1.615 0 3.026 0.557 4.193 1.656 0.636 0.601 1.115 1.423 1.425 2.444 0.279 0.882 0.419 1.86 0.419 2.908v11.332h3.083v-11.332c0-2.915-0.783-5.288-2.329-7.055-1.626-1.848-3.91-2.784-6.791-2.784"/><path d="m178.36 160.54c-2.619 0-4.641 0.891-6.019 2.649v-2.128h-3.083v20.65h3.083v-11.53c0-0.988 0.134-1.924 0.401-2.782 0.309-0.984 0.782-1.782 1.406-2.371 1.168-1.1 2.585-1.657 4.212-1.657 1.615 0 3.026 0.557 4.193 1.656 0.636 0.601 1.115 1.423 1.425 2.444 0.279 0.882 0.419 1.86 0.419 2.908v11.332h3.083v-11.332c0-2.915-0.783-5.288-2.329-7.055-1.626-1.848-3.91-2.784-6.791-2.784"/><path d="m200.69 160.54c-2.934 0-5.488 1.084-7.59 3.224-2.077 2.125-3.13 4.696-3.13 7.64 0 2.957 1.054 5.517 3.131 7.606 2.102 2.115 4.667 3.186 7.625 3.186 2.262 0 4.351-0.675 6.209-2.007 1.856-1.332 3.182-3.098 3.939-5.248l0.121-0.34h-3.272l-0.062 0.167c-0.518 1.402-1.445 2.539-2.756 3.379-1.272 0.808-2.689 1.219-4.215 1.219-1.914 0-3.646-0.704-5.148-2.09-1.441-1.331-2.248-2.911-2.399-4.699h18.31l0.048-0.993c0-2.98-1.059-5.586-3.146-7.747-2.103-2.188-4.681-3.297-7.665-3.297m7.604 9.206h-15.119c0.35-1.791 1.199-3.296 2.525-4.48 1.419-1.257 3.11-1.895 5.026-1.895 1.928 0 3.619 0.637 5.027 1.895 1.325 1.184 2.179 2.689 2.541 4.48"/><path d="m231.3 175.41c-1.379 2.666-3.629 3.961-6.875 3.961-2.257 0-4.187-0.779-5.736-2.317-1.549-1.537-2.334-3.46-2.334-5.716 0-2.231 0.796-4.135 2.37-5.661 1.549-1.527 3.466-2.3 5.7-2.3 3.162 0 5.412 1.355 6.875 4.142l0.072 0.137h3.373l-0.14-0.351c-0.832-2.078-2.207-3.752-4.09-4.974-1.832-1.185-3.905-1.785-6.162-1.785-3.016 0-5.64 1.059-7.802 3.147-2.175 2.113-3.278 4.71-3.278 7.717 0 3.031 1.096 5.622 3.261 7.7 2.137 2.052 4.768 3.092 7.819 3.092 4.59 0 8.036-2.207 10.242-6.559l0.189-0.371h-3.413z"/><polygon transform="translate(-173.9 -230.58)" points="413.52 394.47 413.52 412.29 416.6 412.29 416.6 394.47 421.42 394.47 421.42 391.64 416.6 391.64 416.6 384.52 413.52 384.52 413.52 391.64 409.27 391.64 409.27 394.47"/><path d="m180.94 97.425c-13.068 17.551-26.556 22.324-39.968 23.817-13.606 1.514-25.609-2.241-36.421-10.451-10.814-8.207-17.252-19.018-19.317-32.438-2.065-13.415 0.799-25.658 8.592-36.732 7.791-11.07 19.196-18.048 32.507-20.097 10.019-1.541 14.24-0.397 21.971 1.883 0.634 1.521 2.117 2.682 4.496 4.211 0 0 1.693 1.411 6.354 3.021 2.26 0.781 2.976 8e-3 6.021 1.857 1.85 1.124 3.943 2.008 3.633-1.472 0 0-0.306-2.299-4.181-3.965-3.347-1.19-7.262-3.7-6.289-3.835 0 0 3.04-0.316 7.645 2.637 4.424 2.837 7.947 7.208 10.2 11.235 2.253 4.028 3.553 4.708 3.959 5.189 0.101 0.118 0.342 0.282 0.622 0.402 0.856 0.369 2.074 0.335 0.761-2.627 0 0-2.235-4.881-4.552-9.524-2.818-5.649-5.85-9.78-17.597-14.984-2.446-0.808-4.552-1.06-6.509-1.754-4.874-1.728-8.893-2.811-13.783-3.331-4.611-0.491-9.385-0.767-14.808 0.068-12.589 1.937-23.456 5.621-32.42 13.409-0.558 0.446-1.118 0.89-1.66 1.357-0.441 0.377-0.874 0.763-1.302 1.154-1.171 1.068-2.296 2.181-3.371 3.341-0.473 0.5-0.937 1.015-1.389 1.536-0.685 0.787-1.349 1.59-1.993 2.413-0.526 0.663-1.03 1.338-1.518 2.023-0.942 1.315-1.828 2.664-2.66 4.054-0.647 1.078-1.261 2.178-1.836 3.3-0.61 1.192-1.186 2.405-1.719 3.641-0.351 0.809-0.679 1.625-0.995 2.447-6e-3 0.018-8e-3 0.031-0.018 0.044-0.604 1.606-1.143 3.242-1.609 4.917-0.512 1.808-0.937 3.652-1.274 5.532-0.255 1.398-0.457 2.819-0.61 4.255-0.293 2.741-0.397 5.457-0.31 8.134 1e-3 0.246 0.011 0.493 0.026 0.736 0.049 1.285 0.146 2.551 0.284 3.813 0.152 1.433 0.356 2.852 0.615 4.255 0.036 0.217 0.077 0.431 0.123 0.645 0.028 0.163 0.056 0.321 0.089 0.483 0.17 0.833 0.355 1.659 0.559 2.482 0.088 0.365 0.181 0.73 0.283 1.096 0.077 0.299 0.159 0.599 0.246 0.895 6e-3 0.028 0.017 0.052 0.023 0.08 1.01 3.531 2.351 6.93 3.973 10.173 1.321 2.642 2.825 5.182 4.517 7.588 0.947 1.358 1.959 2.673 3.024 3.947 0.033 0.036 0.061 0.075 0.093 0.111 0.727 0.865 1.478 1.714 2.255 2.54 0.679 0.723 1.373 1.426 2.096 2.117l4e-3 5e-3c2.249 2.167 4.677 4.156 7.262 5.953 1.22 0.845 2.473 1.649 3.762 2.41 1.315 0.773 2.667 1.501 4.051 2.172 0.51 0.255 1.031 0.497 1.556 0.736 0.183 0.083 0.361 0.161 0.544 0.24 0.851 0.378 1.71 0.734 2.585 1.064 0.857 0.333 1.726 0.639 2.605 0.929 3.947 1.319 8.102 2.228 12.41 2.688 0.688 0.074 1.374 0.134 2.056 0.184 0.203 0.017 0.407 0.03 0.61 0.042 0.186 0.011 0.367 0.021 0.548 0.031 0.185 0.011 0.371 0.017 0.557 0.028 1.028 0.046 2.05 0.065 3.067 0.055 0.2-1e-3 0.396-3e-3 0.593-0.01 0.136 1e-3 0.277-2e-3 0.41-0.01 0.205-1e-3 0.411-7e-3 0.612-0.017 1.033-0.035 2.064-0.098 3.084-0.189 0.161-0.01 0.322-0.025 0.478-0.045 0.285-0.024 4.997-0.744 5.387-0.821 0.353-0.067 0.699-0.11 1.049-0.182 0.018-2e-3 0.04 6e-3 0.059 3e-3 0.055-0.012 0.115-0.017 0.171-0.029 0.368-0.079 0.731-0.155 1.1-0.243 0.024-6e-3 0.052-0.011 0.08-0.017 0.378-0.087 0.752-0.178 1.126-0.274 0.028-6e-3 0.061-0.016 0.089-0.022l0.042-9e-3c0.365-0.098 0.731-0.195 1.097-0.297 0.812-0.227 1.621-0.469 2.418-0.729 0.316-0.103 0.632-0.206 0.944-0.318 0.331-0.111 0.657-0.226 0.984-0.346 0.038-0.014 0.081-0.027 0.123-0.046 0.36-0.13 0.726-0.268 1.087-0.407 5e-3 -4e-3 0.01-8e-3 0.014-8e-3 0.342-0.136 0.692-0.27 1.035-0.411 0.419-0.169 1.344-0.581 1.593-0.696 0.215-0.095 0.745-0.329 0.961-0.433 0.172-0.082 0.386-0.202 0.554-0.284 0.038-0.019 0.099-0.035 0.133-0.054 0.201-0.092 0.409-0.188 0.606-0.29l0.011-4e-3c1.509-0.744 2.988-1.56 4.424-2.436 0.258-0.154 0.513-0.313 0.767-0.473 0.195-0.12 0.391-0.245 0.587-0.374 0.342-0.219 0.69-0.45 1.034-0.686 0.456-0.307 0.909-0.618 1.357-0.939 0.365-0.261 0.73-0.527 1.092-0.803 0.243-0.183 0.486-0.367 0.724-0.555 1.29-0.996 2.542-2.055 3.752-3.159 0.087-0.082 0.173-0.164 0.263-0.245 0.137-0.127 0.274-0.258 0.41-0.384 0.051-0.049 0.101-0.094 0.148-0.144 0.318-0.298 0.633-0.606 0.944-0.914 0.178-0.177 0.352-0.354 0.526-0.535 0.261-0.264 0.516-0.528 0.768-0.797 0.046-0.045 0.087-0.091 0.129-0.136 0.153-0.162 0.303-0.328 0.453-0.489 0.401-0.435 0.794-0.876 1.179-1.322 0.254-0.291 0.504-0.588 0.75-0.885 0.778-0.936 1.523-1.895 2.243-2.878 0.384-0.528 0.759-1.057 1.121-1.592 0.373-0.543 0.733-1.096 1.086-1.653 0.623-1.004 0.912-3.24 0.912-3.24z"/><path d="m180.94 42.168c-13.068-17.551-26.556-22.324-39.968-23.817-13.606-1.514-25.609 2.241-36.421 10.451-10.814 8.207-17.252 19.018-19.317 32.438-2.065 13.415 0.799 25.658 8.592 36.732 7.791 11.07 19.196 18.048 32.507 20.097 10.019 1.541 14.24 0.397 21.971-1.883 0.634-1.521 2.117-2.682 4.496-4.211 0 0 1.693-1.411 6.354-3.021 2.26-0.781 2.976-8e-3 6.021-1.857 1.85-1.124 3.943-2.008 3.633 1.472 0 0-0.306 2.299-4.181 3.965-3.347 1.19-7.262 3.7-6.289 3.835 0 0 3.04 0.316 7.645-2.637 4.424-2.837 7.947-7.208 10.2-11.235 2.253-4.028 3.553-4.708 3.959-5.189 0.101-0.118 0.342-0.282 0.622-0.402 0.856-0.369 2.074-0.335 0.761 2.627 0 0-2.235 4.881-4.552 9.524-2.818 5.649-5.85 9.78-17.597 14.984-2.446 0.808-4.552 1.06-6.509 1.754-4.874 1.728-8.893 2.811-13.783 3.331-4.611 0.491-9.385 0.767-14.808-0.068-12.589-1.937-23.456-5.621-32.42-13.409-0.558-0.446-1.118-0.89-1.66-1.357-0.441-0.377-0.874-0.763-1.302-1.154-1.171-1.068-2.296-2.181-3.371-3.341-0.473-0.5-0.937-1.015-1.389-1.536-0.685-0.787-1.349-1.59-1.993-2.413-0.526-0.663-1.03-1.338-1.518-2.023-0.942-1.315-1.828-2.664-2.66-4.054-0.647-1.078-1.261-2.178-1.836-3.3-0.61-1.192-1.186-2.405-1.719-3.641-0.351-0.809-0.679-1.625-0.995-2.447-6e-3 -0.018-8e-3 -0.031-0.018-0.044-0.604-1.606-1.143-3.242-1.609-4.917-0.512-1.808-0.937-3.652-1.274-5.532-0.255-1.398-0.457-2.819-0.61-4.255-0.293-2.741-0.397-5.457-0.31-8.134 1e-3 -0.246 0.011-0.493 0.026-0.736 0.049-1.285 0.146-2.551 0.284-3.813 0.152-1.433 0.356-2.852 0.615-4.255 0.036-0.217 0.077-0.431 0.123-0.645 0.028-0.163 0.056-0.321 0.089-0.483 0.17-0.833 0.355-1.659 0.559-2.482 0.088-0.365 0.181-0.73 0.283-1.096 0.077-0.299 0.159-0.599 0.246-0.895 6e-3 -0.028 0.017-0.052 0.023-0.08 1.01-3.531 2.351-6.93 3.973-10.173 1.321-2.642 2.825-5.182 4.517-7.588 0.947-1.358 1.959-2.673 3.024-3.947 0.033-0.036 0.061-0.075 0.093-0.111 0.727-0.865 1.478-1.714 2.255-2.54 0.679-0.723 1.373-1.426 2.096-2.117l4e-3 -5e-3c2.249-2.167 4.677-4.156 7.262-5.953 1.22-0.845 2.473-1.649 3.762-2.41 1.315-0.773 2.667-1.501 4.051-2.172 0.51-0.255 1.031-0.497 1.556-0.736 0.183-0.083 0.361-0.161 0.544-0.24 0.851-0.378 1.71-0.734 2.585-1.064 0.857-0.333 1.726-0.639 2.605-0.929 3.947-1.319 8.102-2.228 12.41-2.688 0.688-0.074 1.374-0.134 2.056-0.184 0.203-0.017 0.407-0.03 0.61-0.042 0.186-0.011 0.367-0.021 0.548-0.031 0.185-0.011 0.371-0.017 0.557-0.028 1.028-0.046 2.05-0.065001 3.067-0.055 0.2 1e-3 0.396 3e-3 0.593 0.01 0.136-1e-3 0.277 2e-3 0.41 0.01 0.205 1e-3 0.411 7e-3 0.612 0.017 1.033 0.035 2.064 0.098 3.084 0.189 0.161 0.01 0.322 0.025 0.478 0.045 0.285 0.024 4.997 0.744 5.387 0.821 0.353 0.067 0.699 0.11 1.049 0.182 0.018 2e-3 0.04-6e-3 0.059-3e-3 0.055 0.012 0.115 0.017 0.171 0.029 0.368 0.079 0.731 0.155 1.1 0.243 0.024 6e-3 0.052 0.011 0.08 0.017 0.378 0.087 0.752 0.178 1.126 0.274 0.028 6e-3 0.061 0.016 0.089 0.022l0.042 9e-3c0.365 0.098 0.731 0.195 1.097 0.297 0.812 0.227 1.621 0.469 2.418 0.729 0.316 0.103 0.632 0.206 0.944 0.318 0.331 0.111 0.657 0.226 0.984 0.346 0.038 0.014 0.081 0.027 0.123 0.046 0.36 0.13 0.726 0.268 1.087 0.407 5e-3 4e-3 0.01 8e-3 0.014 8e-3 0.342 0.136 0.692 0.27 1.035 0.411 0.419 0.169 1.344 0.581 1.593 0.696 0.215 0.095 0.745 0.329 0.961 0.433 0.172 0.082 0.386 0.202 0.554 0.284 0.038 0.019 0.099 0.035 0.133 0.054 0.201 0.092 0.409 0.188 0.606 0.29l0.011 4e-3c1.509 0.744 2.988 1.56 4.424 2.436 0.258 0.154 0.513 0.313 0.767 0.473 0.195 0.12 0.391 0.245 0.587 0.374 0.342 0.219 0.69 0.45 1.034 0.686 0.456 0.307 0.909 0.618 1.357 0.939 0.365 0.261 0.73 0.527 1.092 0.803 0.243 0.183 0.486 0.367 0.724 0.555 1.29 0.996 2.542 2.055 3.752 3.159 0.087 0.082 0.173 0.164 0.263 0.245 0.137 0.127 0.274 0.258 0.41 0.384 0.051 0.049 0.101 0.094 0.148 0.144 0.318 0.298 0.633 0.606 0.944 0.914 0.178 0.177 0.352 0.354 0.526 0.535 0.261 0.264 0.516 0.528 0.768 0.797 0.046 0.045 0.087 0.091 0.129 0.136 0.153 0.162 0.303 0.328 0.453 0.489 0.401 0.435 0.794 0.876 1.179 1.322 0.254 0.291 0.504 0.588 0.75 0.885 0.778 0.936 1.523 1.895 2.243 2.878 0.384 0.528 0.759 1.057 1.121 1.592 0.373 0.543 0.733 1.096 1.086 1.653 0.623 1.004 1.881 3.375 1.881 3.375z"/></g><g fill="#3fab48"><path d="m33.903 176.33h-15.375l-2.521 5.545h-6.007l13.19-29.405h6.049l13.19 29.405h-6.049zm-7.687-17.685-5.461 12.518h10.922z"/><path d="m61.244 159.06 3.781 2.856-2.311 2.94c1.597 1.807 2.185 3.865 2.185 6.133 0 2.563-0.966 6.175-4.369 7.729 3.444 1.722 4.285 4.201 4.285 6.847 0 5.713-4.369 9.242-10.376 9.242s-10.502-3.655-10.502-9.242h5.083c0 2.688 2.479 4.453 5.419 4.453s5.251-1.596 5.251-4.453-2.688-4.159-5.251-4.159c-6.469 0-10.502-3.949-10.502-10.418s4.705-10.502 10.502-10.502c1.639 0 3.319 0.21 4.747 1.176zm-12.225 11.93c0 3.613 2.437 5.755 5.419 5.755 2.94 0 5.377-2.184 5.377-5.755s-2.437-5.839-5.377-5.839c-2.982 0-5.419 2.226-5.419 5.839z"/><path d="m72.917 161.16 0.378 2.394c1.596-2.563 3.739-2.94 5.839-2.94 2.143 0 4.201 0.84 5.335 1.975l-2.31 4.453c-1.05-0.882-2.017-1.344-3.697-1.344-2.688 0-5.167 1.428-5.167 5.251v10.922h-5.125v-20.709h4.747z"/><path d="m91.985 155.32c0 3.991-6.049 3.991-6.049 0s6.049-3.991 6.049 0zm-5.587 5.755v20.793h5.125v-20.793z"/></g></g>
</svg>
